<svg width="395" height="395" xmlns="http://www.w3.org/2000/svg" xmlns:xlink="http://www.w3.org/1999/xlink" xml:space="preserve" overflow="hidden"><defs><clipPath id="clip0"><rect x="817" y="528" width="395" height="395"/></clipPath></defs><g clip-path="url(#clip0)" transform="translate(-817 -528)"><path d="M819.5 725.5C819.5 617.804 906.581 530.5 1014 530.5 1121.42 530.5 1208.5 617.804 1208.5 725.5 1208.5 833.196 1121.42 920.5 1014 920.5 906.581 920.5 819.5 833.196 819.5 725.5Z" stroke="#000000" stroke-width="4.58333" stroke-miterlimit="8" fill="#FFFFFF" fill-rule="evenodd"/><path d="M1014.5 530.5 1014.5 919.67" stroke="#000000" stroke-width="4.58333" stroke-miterlimit="8" fill="none" fill-rule="evenodd"/><path d="M819.5 725.5 1208.67 725.501" stroke="#000000" stroke-width="4.58333" stroke-miterlimit="8" fill="none" fill-rule="evenodd"/><path d="M876.5 587.5 1151.69 862.685" stroke="#000000" stroke-width="4.58333" stroke-miterlimit="8" fill="none" fill-rule="evenodd"/><path d="M0 0 275.185 275.185" stroke="#000000" stroke-width="4.58333" stroke-miterlimit="8" fill="none" fill-rule="evenodd" transform="matrix(1 0 0 -1 876.5 862.685)"/><path d="M859.5 725.5C859.5 638.239 928.672 567.5 1014 567.5 1099.33 567.5 1168.5 638.239 1168.5 725.5 1168.5 812.761 1099.33 883.5 1014 883.5 928.672 883.5 859.5 812.761 859.5 725.5Z" stroke="#000000" stroke-width="4.58333" stroke-miterlimit="8" fill="#FFFFFF" fill-rule="evenodd"/><path d="M980.068 702.795 1075.35 631.424 1047.94 747.275Z" stroke="#000000" stroke-width="4.58333" stroke-miterlimit="8" fill-rule="evenodd"/><path d="M1047.32 748.234 952.034 819.606 979.44 703.754Z" stroke="#000000" stroke-width="4.58333" stroke-miterlimit="8" fill="#FFFFFF" fill-rule="evenodd"/></g></svg>